<?xml version="1.0" encoding="utf-8"?>
<svg viewBox="0 0 512 512" style="enable-background:new 0 0 512 512;" xmlns="http://www.w3.org/2000/svg">
  <g>
    <g>
      <path d="M437.019,74.981C388.667,26.628,324.38,0,256,0c-54.62,0-106.743,16.965-150.734,49.059 c-4.462,3.256-5.44,9.511-2.185,13.973c3.255,4.462,9.511,5.44,13.973,2.185C157.599,35.636,205.646,20,256,20 c130.131,0,236,105.869,236,236S386.131,492,256,492S20,386.131,20,256c0-47.138,13.851-92.637,40.054-131.58 c3.083-4.582,1.868-10.796-2.714-13.879c-4.582-3.083-10.796-1.868-13.879,2.714C15.028,155.51,0,204.87,0,256 c0,68.38,26.628,132.667,74.981,181.019C123.333,485.372,187.62,512,256,512s132.667-26.628,181.019-74.981 C485.372,388.667,512,324.38,512,256S485.372,123.333,437.019,74.981z" style="fill: rgb(62, 169, 230);"/>
    </g>
  </g>
  <g>
    <g>
      <path d="M83.358,80.564c-4.006-3.803-10.336-3.639-14.138,0.366l-0.208,0.222c-3.762,4.044-3.499,10.337,0.545,14.098 c1.917,1.783,4.355,2.661,6.789,2.661c2.701,0,5.399-1.082,7.378-3.209C87.527,90.696,87.363,84.367,83.358,80.564z" style="fill: rgb(62, 169, 230);"/>
    </g>
  </g>
  <g/>
  <g/>
  <g/>
  <g/>
  <g/>
  <g/>
  <g/>
  <g/>
  <g/>
  <g/>
  <g/>
  <g/>
  <g/>
  <g/>
  <g/>
  <path d="M 251.93 125.333 C 253.111 110.466 228.718 108.88 228.065 122.788 L 228.065 273.918 L 327.016 365.241 C 335.867 374.736 354.569 362.915 342.946 350.445 L 251.331 268.898 L 251.93 125.333 Z" style="fill: rgb(62, 169, 230);"/>
  <g transform="matrix(1, 0, 0, 1, 285.57251, 288.089233)">
    <g transform="matrix(1, 0, 0, 1, -4.251483, -1.822064)"/>
  </g>
</svg>