<?xml version="1.0" encoding="utf-8"?>
<svg viewBox="0 0 512 512" style="enable-background:new 0 0 512 512;" xmlns="http://www.w3.org/2000/svg">
  <g>
    <g>
      <path d="M437.019,74.981C388.667,26.628,324.38,0,256,0c-54.62,0-106.743,16.965-150.734,49.059 c-4.462,3.256-5.44,9.511-2.185,13.973c3.255,4.462,9.511,5.44,13.973,2.185C157.599,35.636,205.646,20,256,20 c130.131,0,236,105.869,236,236S386.131,492,256,492S20,386.131,20,256c0-47.138,13.851-92.637,40.054-131.58 c3.083-4.582,1.868-10.796-2.714-13.879c-4.582-3.083-10.796-1.868-13.879,2.714C15.028,155.51,0,204.87,0,256 c0,68.38,26.628,132.667,74.981,181.019C123.333,485.372,187.62,512,256,512s132.667-26.628,181.019-74.981 C485.372,388.667,512,324.38,512,256S485.372,123.333,437.019,74.981z" style="fill: rgb(62, 169, 230);"/>
    </g>
  </g>
  <g>
    <g>
      <path d="M83.358,80.564c-4.006-3.803-10.336-3.639-14.138,0.366l-0.208,0.222c-3.762,4.044-3.499,10.337,0.545,14.098 c1.917,1.783,4.355,2.661,6.789,2.661c2.701,0,5.399-1.082,7.378-3.209C87.527,90.696,87.363,84.367,83.358,80.564z" style="fill: rgb(62, 169, 230);"/>
    </g>
  </g>
  <g/>
  <g/>
  <g/>
  <g/>
  <g/>
  <g/>
  <g/>
  <g/>
  <g/>
  <g/>
  <g/>
  <g/>
  <g/>
  <g/>
  <g/>
  <path d="M 180.675 362.891 C 181.856 377.758 157.463 379.344 156.81 365.436 L 156.81 214.306 L 255.761 122.983 C 264.612 113.488 283.314 125.309 271.691 137.779 L 180.65 222.199 L 180.675 362.891 Z" style="fill: rgb(62, 169, 230);" transform="matrix(-1, -0.000001, 0.000001, -1, 432.198303, 494.544647)"/>
  <g transform="matrix(1, 0, 0, 1, 285.57251, 288.089233)">
    <g transform="matrix(1, 0, 0, 1, -4.251483, -1.822064)"/>
  </g>
  <g transform="matrix(1, 0, 0, 1, 6.335274, -0.007863)">
    <g>
      <path d="M256.501,447.177c-0.01,0-0.02,0-0.03,0H256c-5.523,0-10,4.477-10,10s4.477,10,10,10h0.53 c5.523-0.016,9.987-4.506,9.971-10.029C266.484,451.635,262.011,447.177,256.501,447.177z" style="fill: rgb(62, 169, 230);"/>
    </g>
  </g>
  <g transform="matrix(1, 0, 0, 1, 3.462098, -1.157134)">
    <g>
      <path d="M384.089,411.459c-3.3-4.428-9.565-5.343-13.994-2.045c-23.191,17.277-50.416,29.207-78.73,34.501 c-5.429,1.015-9.007,6.238-7.992,11.667c0.899,4.808,5.098,8.164,9.818,8.164c0.61,0,1.228-0.056,1.851-0.172 c31.294-5.851,61.379-19.033,87.002-38.121C386.473,422.153,387.388,415.888,384.089,411.459z" style="fill: rgb(62, 169, 230);"/>
    </g>
  </g>
</svg>