<?xml version="1.0" encoding="utf-8"?>
<svg viewBox="0 0 455.561 455.561" style="enable-background:new 0 0 455.561 455.561;" xmlns="http://www.w3.org/2000/svg">
  <g>
    <path d="M 286.388 388.487 L 257.037 388.487 L 257.037 344.412 C 303.872 342.189 341.292 303.392 341.292 256.016 L 341.292 229.073 C 341.292 224.931 337.934 221.573 333.792 221.573 C 329.65 221.573 326.292 224.931 326.292 229.073 L 326.292 256.016 C 326.292 295.119 295.596 327.177 257.037 329.384 L 257.037 313.342 C 286.766 311.16 310.292 286.292 310.292 256.015 L 310.292 81.358 C 310.292 49.652 284.498 23.858 252.792 23.858 L 204.742 23.858 C 173.036 23.858 147.242 49.652 147.242 81.358 L 147.242 85.648 C 147.242 89.79 150.6 93.148 154.742 93.148 C 158.884 93.148 162.242 89.79 162.242 85.648 L 162.242 81.358 C 162.242 57.923 181.307 38.858 204.742 38.858 L 252.792 38.858 C 276.227 38.858 295.292 57.923 295.292 81.358 L 295.292 94.982 L 254.896 94.982 C 250.754 94.982 247.396 98.34 247.396 102.482 C 247.396 106.624 250.754 109.982 254.896 109.982 L 296.913 109.442 L 295.292 135.413 L 254.896 135.413 C 250.754 135.413 247.396 138.771 247.396 142.913 C 247.396 147.055 250.754 150.413 254.896 150.413 L 295.292 150.413 L 295.292 175.844 L 254.896 175.844 C 250.754 175.844 247.396 179.202 247.396 183.344 C 247.396 187.486 250.754 190.844 254.896 190.844 L 295.292 190.844 L 295.292 216.275 L 254.896 216.275 C 250.754 216.275 247.396 219.633 247.396 223.775 C 247.396 227.917 250.754 231.275 254.896 231.275 L 295.292 231.275 L 295.292 256.015 C 295.292 279.45 276.227 298.515 252.792 298.515 L 249.537 298.515 L 207.998 298.515 L 204.743 298.515 C 181.308 298.515 162.243 279.45 162.243 256.015 L 162.243 231.275 L 202.639 231.275 C 206.781 231.275 210.139 227.917 210.139 223.775 C 210.139 219.633 206.781 216.275 202.639 216.275 L 162.243 216.275 L 162.243 190.844 L 202.639 190.844 C 206.781 190.844 210.139 187.486 210.139 183.344 C 210.139 179.202 206.781 175.844 202.639 175.844 L 162.243 175.844 L 162.243 150.413 L 202.639 150.413 C 206.781 150.413 210.139 147.055 210.139 142.913 C 210.139 138.771 206.781 135.413 202.639 135.413 L 162.243 135.413 L 162.243 119.647 C 162.243 115.505 158.885 112.147 154.743 112.147 C 150.601 112.147 147.243 115.505 147.243 119.647 L 147.243 256.015 C 147.243 286.291 170.769 311.16 200.498 313.342 L 200.498 329.384 C 161.939 327.176 131.243 295.118 131.243 256.016 L 131.243 232.545 C 131.243 228.403 127.885 225.045 123.743 225.045 C 119.601 225.045 116.243 228.403 116.243 232.545 L 116.243 256.016 C 116.243 303.392 153.663 342.189 200.498 344.412 L 200.498 388.487 L 171.147 388.487 C 139.441 388.487 113.647 414.281 113.647 445.987 L 113.647 448.061 C 113.647 452.203 117.005 455.561 121.147 455.561 L 169.406 455.561 C 173.548 455.561 176.906 452.203 176.906 448.061 C 176.906 443.919 173.548 440.561 169.406 440.561 L 128.992 440.561 C 131.665 419.679 149.551 403.487 171.147 403.487 L 286.387 403.487 C 307.984 403.487 325.869 419.679 328.542 440.561 L 203.406 440.561 C 199.264 440.561 195.906 443.919 195.906 448.061 C 195.906 452.203 199.264 455.561 203.406 455.561 L 336.387 455.561 C 340.529 455.561 343.887 452.203 343.887 448.061 L 343.887 445.987 C 343.888 414.281 318.093 388.487 286.388 388.487 Z M 242.037 313.516 L 242.037 385.308 L 215.498 385.308 L 215.498 313.516 L 242.037 313.516 L 242.037 313.516 Z" style="fill: rgb(62, 169, 230);"/>
  </g>
</svg>