<?xml version="1.0" encoding="utf-8"?>
<svg viewBox="0 0 512.002 512.002" xmlns="http://www.w3.org/2000/svg">
  <g>
    <g>
      <path d="m114.581 255.148c-5.523 0-9.997 4.477-9.997 10s4.481 10 10.004 10 10-4.477 10-10-4.477-10-10-10z" style="fill: rgb(62, 169, 230);"/>
      <path d="m486.008 130c0-71.683-58.317-130-130-130-50.893 0-95.041 29.401-116.372 72.105-1.893-.062-3.785-.103-5.658-.103-45.751 0-88.888 17.745-121.465 49.964-32.606 32.25-50.563 74.969-50.563 120.29 0 10.382-9.245 29.461-24.729 51.037-14.404 20.07-12.339 34.198-8.071 42.515 4.499 8.768 15.635 19.047 42.924 21.063v43.753c0 29.594 24.293 53.67 54.153 53.67 26.102 0 40.475.968 46.598 6.26 5.996 5.181 7.887 18.244 9.451 42.103.345 5.257 4.709 9.346 9.979 9.346h143.395c2.766 0 5.408-1.146 7.299-3.164s2.86-4.73 2.68-7.49c-1.268-19.349-1.795-33.597-1.709-46.198.037-5.523-4.409-10.03-9.933-10.068-.023 0-.046 0-.068 0-5.491 0-9.962 4.433-9.999 9.932-.072 10.642.271 22.335 1.1 36.988h-123.456c-1.742-21.759-4.681-37.092-15.661-46.581-12.01-10.378-30.557-11.127-59.676-11.127-18.832 0-34.153-15.104-34.153-33.67v-13.399h30c5.523 0 10-4.477 10-10s-4.477-10-10-10h-30v-20.001c0-5.523-4.477-10-10-10-18.609 0-31.742-3.943-35.131-10.546-2.401-4.68-.023-12.597 6.526-21.722 12.993-18.103 28.48-43.675 28.48-62.698 0-82.088 66.953-149 149.721-150.225-3.677 12.016-5.662 24.765-5.662 37.969 0 71.682 58.317 130 130 130 10.062 0 19.86-1.15 29.27-3.323-2.207 22.479-9.54 44.247-21.552 63.626-9.388 15.142-16.74 29.187-22.479 42.936-2.127 5.097.28 10.953 5.377 13.08 1.259.525 2.563.774 3.848.774 3.914 0 7.631-2.313 9.232-6.151 5.324-12.756 12.199-25.874 21.021-40.102 15.148-24.438 23.752-52.23 25.084-80.765 47.041-19.584 80.199-66.028 80.199-120.078zm-130 110c-60.654 0-110-49.346-110-110s49.346-110 110-110 110 49.346 110 110-49.345 110-110 110z" style="fill: rgb(62, 169, 230);"/>
      <path d="m407.233 96.533h-17.5v-17.5c0-11.028-8.972-20-19.999-20h-25.001c-11.028 0-20 8.972-20 20v17.5h-17.5c-11.028 0-20 8.972-20 20v25c0 11.028 8.972 20 20 20h17.5v17.5c0 11.028 8.972 20 20 20h25.001c11.027 0 19.999-8.972 19.999-20v-17.5h17.5c11.028 0 20-8.972 20-20v-25c0-11.028-8.972-20-20-20zm0 45h-27.5c-5.522 0-10 4.477-10 10l.001 27.5h-25.001v-27.5c0-5.523-4.478-10-10-10h-27.5v-25h27.5c5.522 0 10-4.477 10-10l-.002-27.5h25.002v27.5c0 5.523 4.478 10 10 10h27.5z" style="fill: rgb(62, 169, 230);"/>
      <path d="m337.677 400.239h-.008c-5.522 0-9.996 4.477-9.996 10s4.481 10 10.004 10 10-4.477 10-10-4.477-10-10-10z" style="fill: rgb(62, 169, 230);"/>
    </g>
  </g>
</svg>